<svg id="visual" viewBox="0 0 900 600" width="900" height="600" xmlns="http://www.w3.org/2000/svg" xmlns:xlink="http://www.w3.org/1999/xlink" version="1.1"><rect x="0" y="0" width="900" height="600" fill="#001220"></rect><defs><linearGradient id="grad1_0" x1="33.3%" y1="0%" x2="100%" y2="100%"><stop offset="20%" stop-color="#fbae3c" stop-opacity="1"></stop><stop offset="80%" stop-color="#fbae3c" stop-opacity="1"></stop></linearGradient></defs><defs><linearGradient id="grad1_1" x1="33.3%" y1="0%" x2="100%" y2="100%"><stop offset="20%" stop-color="#fbae3c" stop-opacity="1"></stop><stop offset="80%" stop-color="#f48350" stop-opacity="1"></stop></linearGradient></defs><defs><linearGradient id="grad1_2" x1="33.3%" y1="0%" x2="100%" y2="100%"><stop offset="20%" stop-color="#d96162" stop-opacity="1"></stop><stop offset="80%" stop-color="#f48350" stop-opacity="1"></stop></linearGradient></defs><defs><linearGradient id="grad1_3" x1="33.3%" y1="0%" x2="100%" y2="100%"><stop offset="20%" stop-color="#d96162" stop-opacity="1"></stop><stop offset="80%" stop-color="#af4b6d" stop-opacity="1"></stop></linearGradient></defs><defs><linearGradient id="grad1_4" x1="33.3%" y1="0%" x2="100%" y2="100%"><stop offset="20%" stop-color="#7c3e6b" stop-opacity="1"></stop><stop offset="80%" stop-color="#af4b6d" stop-opacity="1"></stop></linearGradient></defs><defs><linearGradient id="grad1_5" x1="33.3%" y1="0%" x2="100%" y2="100%"><stop offset="20%" stop-color="#7c3e6b" stop-opacity="1"></stop><stop offset="80%" stop-color="#49335c" stop-opacity="1"></stop></linearGradient></defs><defs><linearGradient id="grad1_6" x1="33.3%" y1="0%" x2="100%" y2="100%"><stop offset="20%" stop-color="#1d2540" stop-opacity="1"></stop><stop offset="80%" stop-color="#49335c" stop-opacity="1"></stop></linearGradient></defs><defs><linearGradient id="grad1_7" x1="33.3%" y1="0%" x2="100%" y2="100%"><stop offset="20%" stop-color="#1d2540" stop-opacity="1"></stop><stop offset="80%" stop-color="#001220" stop-opacity="1"></stop></linearGradient></defs><defs><linearGradient id="grad2_0" x1="0%" y1="0%" x2="66.7%" y2="100%"><stop offset="20%" stop-color="#fbae3c" stop-opacity="1"></stop><stop offset="80%" stop-color="#fbae3c" stop-opacity="1"></stop></linearGradient></defs><defs><linearGradient id="grad2_1" x1="0%" y1="0%" x2="66.7%" y2="100%"><stop offset="20%" stop-color="#f48350" stop-opacity="1"></stop><stop offset="80%" stop-color="#fbae3c" stop-opacity="1"></stop></linearGradient></defs><defs><linearGradient id="grad2_2" x1="0%" y1="0%" x2="66.7%" y2="100%"><stop offset="20%" stop-color="#f48350" stop-opacity="1"></stop><stop offset="80%" stop-color="#d96162" stop-opacity="1"></stop></linearGradient></defs><defs><linearGradient id="grad2_3" x1="0%" y1="0%" x2="66.7%" y2="100%"><stop offset="20%" stop-color="#af4b6d" stop-opacity="1"></stop><stop offset="80%" stop-color="#d96162" stop-opacity="1"></stop></linearGradient></defs><defs><linearGradient id="grad2_4" x1="0%" y1="0%" x2="66.7%" y2="100%"><stop offset="20%" stop-color="#af4b6d" stop-opacity="1"></stop><stop offset="80%" stop-color="#7c3e6b" stop-opacity="1"></stop></linearGradient></defs><defs><linearGradient id="grad2_5" x1="0%" y1="0%" x2="66.7%" y2="100%"><stop offset="20%" stop-color="#49335c" stop-opacity="1"></stop><stop offset="80%" stop-color="#7c3e6b" stop-opacity="1"></stop></linearGradient></defs><defs><linearGradient id="grad2_6" x1="0%" y1="0%" x2="66.7%" y2="100%"><stop offset="20%" stop-color="#49335c" stop-opacity="1"></stop><stop offset="80%" stop-color="#1d2540" stop-opacity="1"></stop></linearGradient></defs><defs><linearGradient id="grad2_7" x1="0%" y1="0%" x2="66.7%" y2="100%"><stop offset="20%" stop-color="#001220" stop-opacity="1"></stop><stop offset="80%" stop-color="#1d2540" stop-opacity="1"></stop></linearGradient></defs><g transform="translate(900, 0)"><path d="M0 243.4C-21.3 215.5 -42.7 187.6 -74.6 180.2C-106.6 172.7 -149.2 185.6 -172.1 172.1C-195 158.6 -198.3 118.8 -206.9 85.7C-215.6 52.6 -229.5 26.3 -243.4 0L0 0Z" fill="#0c1c30"></path><path d="M0 213C-18.7 188.6 -37.3 164.2 -65.3 157.6C-93.3 151.1 -130.5 162.4 -150.6 150.6C-170.7 138.8 -173.5 103.9 -181.1 75C-188.6 46.1 -200.8 23 -213 0L0 0Z" fill="#312c4f"></path><path d="M0 182.5C-16 161.6 -32 140.7 -56 135.1C-79.9 129.5 -111.9 139.2 -129.1 129.1C-146.3 119 -148.8 89.1 -155.2 64.3C-161.7 39.5 -172.1 19.7 -182.5 0L0 0Z" fill="#623965"></path><path d="M0 152.1C-13.3 134.7 -26.7 117.3 -46.6 112.6C-66.6 107.9 -93.2 116 -107.6 107.6C-121.9 99.1 -124 74.2 -129.3 53.6C-134.7 32.9 -143.4 16.5 -152.1 0L0 0Z" fill="#96446e"></path><path d="M0 121.7C-10.7 107.8 -21.3 93.8 -37.3 90.1C-53.3 86.3 -74.6 92.8 -86 86C-97.5 79.3 -99.2 59.4 -103.5 42.9C-107.8 26.3 -114.7 13.2 -121.7 0L0 0Z" fill="#c55469"></path><path d="M0 91.3C-8 80.8 -16 70.4 -28 67.6C-40 64.8 -55.9 69.6 -64.5 64.5C-73.1 59.5 -74.4 44.5 -77.6 32.1C-80.8 19.7 -86 9.9 -91.3 0L0 0Z" fill="#e9705a"></path><path d="M0 60.8C-5.3 53.9 -10.7 46.9 -18.7 45C-26.6 43.2 -37.3 46.4 -43 43C-48.8 39.7 -49.6 29.7 -51.7 21.4C-53.9 13.2 -57.4 6.6 -60.8 0L0 0Z" fill="#fa9845"></path><path d="M0 30.4C-2.7 26.9 -5.3 23.5 -9.3 22.5C-13.3 21.6 -18.6 23.2 -21.5 21.5C-24.4 19.8 -24.8 14.8 -25.9 10.7C-26.9 6.6 -28.7 3.3 -30.4 0L0 0Z" fill="#fbae3c"></path></g><g transform="translate(0, 600)"><path d="M0 -243.4C28.9 -233.4 57.8 -223.4 88.4 -213.4C119 -203.4 151.2 -193.3 172.1 -172.1C193 -150.9 202.5 -118.6 212.5 -88C222.5 -57.5 232.9 -28.7 243.4 0L0 0Z" fill="#0c1c30"></path><path d="M0 -213C25.3 -204.2 50.6 -195.5 77.3 -186.7C104.1 -178 132.3 -169.1 150.6 -150.6C168.9 -132 177.2 -103.7 185.9 -77C194.7 -50.3 203.8 -25.1 213 0L0 0Z" fill="#312c4f"></path><path d="M0 -182.5C21.7 -175.1 43.4 -167.6 66.3 -160.1C89.2 -152.5 113.4 -145 129.1 -129.1C144.7 -113.2 151.9 -88.9 159.4 -66C166.9 -43.1 174.7 -21.6 182.5 0L0 0Z" fill="#623965"></path><path d="M0 -152.1C18.1 -145.9 36.1 -139.7 55.2 -133.4C74.4 -127.1 94.5 -120.8 107.6 -107.6C120.6 -94.3 126.6 -74.1 132.8 -55C139.1 -35.9 145.6 -18 152.1 0L0 0Z" fill="#96446e"></path><path d="M0 -121.7C14.5 -116.7 28.9 -111.7 44.2 -106.7C59.5 -101.7 75.6 -96.7 86 -86C96.5 -75.4 101.3 -59.3 106.2 -44C111.2 -28.7 116.5 -14.4 121.7 0L0 0Z" fill="#c55469"></path><path d="M0 -91.3C10.8 -87.5 21.7 -83.8 33.1 -80C44.6 -76.3 56.7 -72.5 64.5 -64.5C72.4 -56.6 75.9 -44.5 79.7 -33C83.4 -21.6 87.3 -10.8 91.3 0L0 0Z" fill="#e9705a"></path><path d="M0 -60.8C7.2 -58.4 14.5 -55.9 22.1 -53.4C29.7 -50.8 37.8 -48.3 43 -43C48.2 -37.7 50.6 -29.6 53.1 -22C55.6 -14.4 58.2 -7.2 60.8 0L0 0Z" fill="#fa9845"></path><path d="M0 -30.4C3.6 -29.2 7.2 -27.9 11 -26.7C14.9 -25.4 18.9 -24.2 21.5 -21.5C24.1 -18.9 25.3 -14.8 26.6 -11C27.8 -7.2 29.1 -3.6 30.4 0L0 0Z" fill="#fbae3c"></path></g></svg>