<svg id="visual" viewBox="0 0 900 600" width="900" height="600" xmlns="http://www.w3.org/2000/svg" xmlns:xlink="http://www.w3.org/1999/xlink" version="1.1"><rect x="0" y="0" width="900" height="600" fill="#001220"></rect><defs><linearGradient id="grad1_0" x1="33.3%" y1="0%" x2="100%" y2="100%"><stop offset="20%" stop-color="#fbae3c" stop-opacity="1"></stop><stop offset="80%" stop-color="#fbae3c" stop-opacity="1"></stop></linearGradient></defs><defs><linearGradient id="grad1_1" x1="33.3%" y1="0%" x2="100%" y2="100%"><stop offset="20%" stop-color="#fbae3c" stop-opacity="1"></stop><stop offset="80%" stop-color="#f48350" stop-opacity="1"></stop></linearGradient></defs><defs><linearGradient id="grad1_2" x1="33.3%" y1="0%" x2="100%" y2="100%"><stop offset="20%" stop-color="#d96162" stop-opacity="1"></stop><stop offset="80%" stop-color="#f48350" stop-opacity="1"></stop></linearGradient></defs><defs><linearGradient id="grad1_3" x1="33.3%" y1="0%" x2="100%" y2="100%"><stop offset="20%" stop-color="#d96162" stop-opacity="1"></stop><stop offset="80%" stop-color="#af4b6d" stop-opacity="1"></stop></linearGradient></defs><defs><linearGradient id="grad1_4" x1="33.3%" y1="0%" x2="100%" y2="100%"><stop offset="20%" stop-color="#7c3e6b" stop-opacity="1"></stop><stop offset="80%" stop-color="#af4b6d" stop-opacity="1"></stop></linearGradient></defs><defs><linearGradient id="grad1_5" x1="33.3%" y1="0%" x2="100%" y2="100%"><stop offset="20%" stop-color="#7c3e6b" stop-opacity="1"></stop><stop offset="80%" stop-color="#49335c" stop-opacity="1"></stop></linearGradient></defs><defs><linearGradient id="grad1_6" x1="33.3%" y1="0%" x2="100%" y2="100%"><stop offset="20%" stop-color="#1d2540" stop-opacity="1"></stop><stop offset="80%" stop-color="#49335c" stop-opacity="1"></stop></linearGradient></defs><defs><linearGradient id="grad1_7" x1="33.3%" y1="0%" x2="100%" y2="100%"><stop offset="20%" stop-color="#1d2540" stop-opacity="1"></stop><stop offset="80%" stop-color="#001220" stop-opacity="1"></stop></linearGradient></defs><defs><linearGradient id="grad2_0" x1="0%" y1="0%" x2="66.7%" y2="100%"><stop offset="20%" stop-color="#fbae3c" stop-opacity="1"></stop><stop offset="80%" stop-color="#fbae3c" stop-opacity="1"></stop></linearGradient></defs><defs><linearGradient id="grad2_1" x1="0%" y1="0%" x2="66.7%" y2="100%"><stop offset="20%" stop-color="#f48350" stop-opacity="1"></stop><stop offset="80%" stop-color="#fbae3c" stop-opacity="1"></stop></linearGradient></defs><defs><linearGradient id="grad2_2" x1="0%" y1="0%" x2="66.7%" y2="100%"><stop offset="20%" stop-color="#f48350" stop-opacity="1"></stop><stop offset="80%" stop-color="#d96162" stop-opacity="1"></stop></linearGradient></defs><defs><linearGradient id="grad2_3" x1="0%" y1="0%" x2="66.7%" y2="100%"><stop offset="20%" stop-color="#af4b6d" stop-opacity="1"></stop><stop offset="80%" stop-color="#d96162" stop-opacity="1"></stop></linearGradient></defs><defs><linearGradient id="grad2_4" x1="0%" y1="0%" x2="66.7%" y2="100%"><stop offset="20%" stop-color="#af4b6d" stop-opacity="1"></stop><stop offset="80%" stop-color="#7c3e6b" stop-opacity="1"></stop></linearGradient></defs><defs><linearGradient id="grad2_5" x1="0%" y1="0%" x2="66.7%" y2="100%"><stop offset="20%" stop-color="#49335c" stop-opacity="1"></stop><stop offset="80%" stop-color="#7c3e6b" stop-opacity="1"></stop></linearGradient></defs><defs><linearGradient id="grad2_6" x1="0%" y1="0%" x2="66.7%" y2="100%"><stop offset="20%" stop-color="#49335c" stop-opacity="1"></stop><stop offset="80%" stop-color="#1d2540" stop-opacity="1"></stop></linearGradient></defs><defs><linearGradient id="grad2_7" x1="0%" y1="0%" x2="66.7%" y2="100%"><stop offset="20%" stop-color="#001220" stop-opacity="1"></stop><stop offset="80%" stop-color="#1d2540" stop-opacity="1"></stop></linearGradient></defs><g transform="translate(900, 0)"><path d="M0 189.3C-15.3 162.1 -30.7 134.9 -52.8 127.5C-75 120.1 -103.9 132.4 -126.6 126.6C-149.2 120.7 -165.5 96.6 -174.9 72.4C-184.3 48.3 -186.8 24.2 -189.3 0L0 0Z" fill="#0c1c30"></path><path d="M0 165.6C-13.4 141.8 -26.8 118 -46.2 111.6C-65.6 105.1 -90.9 115.9 -110.8 110.8C-130.6 105.6 -144.8 84.5 -153 63.4C-161.2 42.3 -163.4 21.1 -165.6 0L0 0Z" fill="#312c4f"></path><path d="M0 142C-11.5 121.6 -23 101.2 -39.6 95.6C-56.2 90.1 -78 99.3 -94.9 94.9C-111.9 90.5 -124.1 72.4 -131.2 54.3C-138.2 36.2 -140.1 18.1 -142 0L0 0Z" fill="#623965"></path><path d="M0 118.3C-9.6 101.3 -19.2 84.3 -33 79.7C-46.9 75.1 -65 82.8 -79.1 79.1C-93.3 75.4 -103.4 60.4 -109.3 45.3C-115.2 30.2 -116.7 15.1 -118.3 0L0 0Z" fill="#96446e"></path><path d="M0 94.6C-7.7 81 -15.3 67.5 -26.4 63.7C-37.5 60 -52 66.2 -63.3 63.3C-74.6 60.3 -82.7 48.3 -87.4 36.2C-92.1 24.2 -93.4 12.1 -94.6 0L0 0Z" fill="#c55469"></path><path d="M0 71C-5.7 60.8 -11.5 50.6 -19.8 47.8C-28.1 45 -39 49.7 -47.5 47.5C-56 45.3 -62.1 36.2 -65.6 27.2C-69.1 18.1 -70 9.1 -71 0L0 0Z" fill="#e9705a"></path><path d="M0 47.3C-3.8 40.5 -7.7 33.7 -13.2 31.9C-18.7 30 -26 33.1 -31.6 31.6C-37.3 30.2 -41.4 24.1 -43.7 18.1C-46.1 12.1 -46.7 6 -47.3 0L0 0Z" fill="#fa9845"></path><path d="M0 23.7C-1.9 20.3 -3.8 16.9 -6.6 15.9C-9.4 15 -13 16.6 -15.8 15.8C-18.7 15.1 -20.7 12.1 -21.9 9.1C-23 6 -23.3 3 -23.7 0L0 0Z" fill="#fbae3c"></path></g><g transform="translate(0, 600)"><path d="M0 -189.3C23.8 -181.6 47.7 -173.9 67.4 -162.6C87.1 -151.3 102.6 -136.3 121.6 -121.6C140.6 -107 163 -92.7 174.9 -72.4C186.7 -52.2 188 -26.1 189.3 0L0 0Z" fill="#0c1c30"></path><path d="M0 -165.6C20.8 -158.9 41.7 -152.2 58.9 -142.3C76.2 -132.4 89.8 -119.2 106.4 -106.4C123 -93.6 142.7 -81.1 153 -63.4C163.4 -45.7 164.5 -22.8 165.6 0L0 0Z" fill="#312c4f"></path><path d="M0 -142C17.9 -136.2 35.7 -130.5 50.5 -122C65.3 -113.5 77 -102.2 91.2 -91.2C105.5 -80.2 122.3 -69.5 131.2 -54.3C140 -39.2 141 -19.6 142 0L0 0Z" fill="#623965"></path><path d="M0 -118.3C14.9 -113.5 29.8 -108.7 42.1 -101.6C54.4 -94.5 64.1 -85.2 76 -76C87.9 -66.9 101.9 -57.9 109.3 -45.3C116.7 -32.6 117.5 -16.3 118.3 0L0 0Z" fill="#96446e"></path><path d="M0 -94.6C11.9 -90.8 23.8 -87 33.7 -81.3C43.5 -75.6 51.3 -68.1 60.8 -60.8C70.3 -53.5 81.5 -46.3 87.4 -36.2C93.4 -26.1 94 -13.1 94.6 0L0 0Z" fill="#c55469"></path><path d="M0 -71C8.9 -68.1 17.9 -65.2 25.3 -61C32.6 -56.7 38.5 -51.1 45.6 -45.6C52.7 -40.1 61.1 -34.7 65.6 -27.2C70 -19.6 70.5 -9.8 71 0L0 0Z" fill="#e9705a"></path><path d="M0 -47.3C6 -45.4 11.9 -43.5 16.8 -40.7C21.8 -37.8 25.7 -34.1 30.4 -30.4C35.2 -26.7 40.8 -23.2 43.7 -18.1C46.7 -13.1 47 -6.5 47.3 0L0 0Z" fill="#fa9845"></path><path d="M0 -23.7C3 -22.7 6 -21.7 8.4 -20.3C10.9 -18.9 12.8 -17 15.2 -15.2C17.6 -13.4 20.4 -11.6 21.9 -9.1C23.3 -6.5 23.5 -3.3 23.7 0L0 0Z" fill="#fbae3c"></path></g></svg>