<svg id="visual" viewBox="0 0 900 600" width="900" height="600" xmlns="http://www.w3.org/2000/svg" xmlns:xlink="http://www.w3.org/1999/xlink" version="1.1"><rect x="0" y="0" width="900" height="600" fill="#001220"></rect><path d="M0 550L10 548.3C20 546.7 40 543.3 60 536.8C80 530.3 100 520.7 120 519.5C140 518.3 160 525.7 180 530.8C200 536 220 539 240 539.3C260 539.7 280 537.3 300 531.7C320 526 340 517 360 510.8C380 504.7 400 501.3 420 501.8C440 502.3 460 506.7 480 505.5C500 504.3 520 497.7 540 499.5C560 501.3 580 511.7 600 520.5C620 529.3 640 536.7 660 540.2C680 543.7 700 543.3 720 537.3C740 531.3 760 519.7 780 510.2C800 500.7 820 493.3 840 493.2C860 493 880 500 890 503.5L900 507L900 601L890 601C880 601 860 601 840 601C820 601 800 601 780 601C760 601 740 601 720 601C700 601 680 601 660 601C640 601 620 601 600 601C580 601 560 601 540 601C520 601 500 601 480 601C460 601 440 601 420 601C400 601 380 601 360 601C340 601 320 601 300 601C280 601 260 601 240 601C220 601 200 601 180 601C160 601 140 601 120 601C100 601 80 601 60 601C40 601 20 601 10 601L0 601Z" fill="#f7770f"></path><path d="M0 504L10 508.3C20 512.7 40 521.3 60 521.8C80 522.3 100 514.7 120 511.5C140 508.3 160 509.7 180 518.3C200 527 220 543 240 545.3C260 547.7 280 536.3 300 527.5C320 518.7 340 512.3 360 508.8C380 505.3 400 504.7 420 514C440 523.3 460 542.7 480 541.8C500 541 520 520 540 515.3C560 510.7 580 522.3 600 528.8C620 535.3 640 536.7 660 541.7C680 546.7 700 555.3 720 550.8C740 546.3 760 528.7 780 524.7C800 520.7 820 530.3 840 537.2C860 544 880 548 890 550L900 552L900 601L890 601C880 601 860 601 840 601C820 601 800 601 780 601C760 601 740 601 720 601C700 601 680 601 660 601C640 601 620 601 600 601C580 601 560 601 540 601C520 601 500 601 480 601C460 601 440 601 420 601C400 601 380 601 360 601C340 601 320 601 300 601C280 601 260 601 240 601C220 601 200 601 180 601C160 601 140 601 120 601C100 601 80 601 60 601C40 601 20 601 10 601L0 601Z" fill="#f66528"></path><path d="M0 549L10 544.8C20 540.7 40 532.3 60 527C80 521.7 100 519.3 120 519.8C140 520.3 160 523.7 180 529.2C200 534.7 220 542.3 240 549.5C260 556.7 280 563.3 300 565.2C320 567 340 564 360 559.3C380 554.7 400 548.3 420 541.7C440 535 460 528 480 530.7C500 533.3 520 545.7 540 549.7C560 553.7 580 549.3 600 548.5C620 547.7 640 550.3 660 545C680 539.7 700 526.3 720 520.2C740 514 760 515 780 518.5C800 522 820 528 840 532.3C860 536.7 880 539.3 890 540.7L900 542L900 601L890 601C880 601 860 601 840 601C820 601 800 601 780 601C760 601 740 601 720 601C700 601 680 601 660 601C640 601 620 601 600 601C580 601 560 601 540 601C520 601 500 601 480 601C460 601 440 601 420 601C400 601 380 601 360 601C340 601 320 601 300 601C280 601 260 601 240 601C220 601 200 601 180 601C160 601 140 601 120 601C100 601 80 601 60 601C40 601 20 601 10 601L0 601Z" fill="#f35339"></path><path d="M0 527L10 535.5C20 544 40 561 60 567.3C80 573.7 100 569.3 120 561.5C140 553.7 160 542.3 180 543C200 543.7 220 556.3 240 563.3C260 570.3 280 571.7 300 567.3C320 563 340 553 360 551.7C380 550.3 400 557.7 420 560.7C440 563.7 460 562.3 480 556.8C500 551.3 520 541.7 540 543C560 544.3 580 556.7 600 559.7C620 562.7 640 556.3 660 554.5C680 552.7 700 555.3 720 556.8C740 558.3 760 558.7 780 556.8C800 555 820 551 840 546.8C860 542.7 880 538.3 890 536.2L900 534L900 601L890 601C880 601 860 601 840 601C820 601 800 601 780 601C760 601 740 601 720 601C700 601 680 601 660 601C640 601 620 601 600 601C580 601 560 601 540 601C520 601 500 601 480 601C460 601 440 601 420 601C400 601 380 601 360 601C340 601 320 601 300 601C280 601 260 601 240 601C220 601 200 601 180 601C160 601 140 601 120 601C100 601 80 601 60 601C40 601 20 601 10 601L0 601Z" fill="#ec4347"></path><path d="M0 578L10 573.2C20 568.3 40 558.7 60 557.5C80 556.3 100 563.7 120 563C140 562.3 160 553.7 180 552.5C200 551.3 220 557.7 240 560.5C260 563.3 280 562.7 300 561.8C320 561 340 560 360 558.8C380 557.7 400 556.3 420 558.3C440 560.3 460 565.7 480 567.7C500 569.7 520 568.3 540 566.5C560 564.7 580 562.3 600 563.7C620 565 640 570 660 573.3C680 576.7 700 578.3 720 576.3C740 574.3 760 568.7 780 564.3C800 560 820 557 840 555.2C860 553.3 880 552.7 890 552.3L900 552L900 601L890 601C880 601 860 601 840 601C820 601 800 601 780 601C760 601 740 601 720 601C700 601 680 601 660 601C640 601 620 601 600 601C580 601 560 601 540 601C520 601 500 601 480 601C460 601 440 601 420 601C400 601 380 601 360 601C340 601 320 601 300 601C280 601 260 601 240 601C220 601 200 601 180 601C160 601 140 601 120 601C100 601 80 601 60 601C40 601 20 601 10 601L0 601Z" fill="#e23553"></path><path d="M0 577L10 578.2C20 579.3 40 581.7 60 582C80 582.3 100 580.7 120 577.2C140 573.7 160 568.3 180 565.7C200 563 220 563 240 562.2C260 561.3 280 559.7 300 562.3C320 565 340 572 360 572.2C380 572.3 400 565.7 420 563.2C440 560.7 460 562.3 480 563.7C500 565 520 566 540 567.8C560 569.7 580 572.3 600 572.5C620 572.7 640 570.3 660 570.3C680 570.3 700 572.7 720 576.2C740 579.7 760 584.3 780 585.2C800 586 820 583 840 577.8C860 572.7 880 565.3 890 561.7L900 558L900 601L890 601C880 601 860 601 840 601C820 601 800 601 780 601C760 601 740 601 720 601C700 601 680 601 660 601C640 601 620 601 600 601C580 601 560 601 540 601C520 601 500 601 480 601C460 601 440 601 420 601C400 601 380 601 360 601C340 601 320 601 300 601C280 601 260 601 240 601C220 601 200 601 180 601C160 601 140 601 120 601C100 601 80 601 60 601C40 601 20 601 10 601L0 601Z" fill="#d52a5e"></path><path d="M0 572L10 576.2C20 580.3 40 588.7 60 592.7C80 596.7 100 596.3 120 593.8C140 591.3 160 586.7 180 582.8C200 579 220 576 240 577.3C260 578.7 280 584.3 300 584.7C320 585 340 580 360 578.8C380 577.7 400 580.3 420 582.3C440 584.3 460 585.7 480 584.7C500 583.7 520 580.3 540 579.5C560 578.7 580 580.3 600 581.3C620 582.3 640 582.7 660 581.2C680 579.7 700 576.3 720 575.5C740 574.7 760 576.3 780 578.7C800 581 820 584 840 583.5C860 583 880 579 890 577L900 575L900 601L890 601C880 601 860 601 840 601C820 601 800 601 780 601C760 601 740 601 720 601C700 601 680 601 660 601C640 601 620 601 600 601C580 601 560 601 540 601C520 601 500 601 480 601C460 601 440 601 420 601C400 601 380 601 360 601C340 601 320 601 300 601C280 601 260 601 240 601C220 601 200 601 180 601C160 601 140 601 120 601C100 601 80 601 60 601C40 601 20 601 10 601L0 601Z" fill="#c62368"></path></svg>