<svg id="visual" viewBox="0 0 900 600" width="900" height="600" xmlns="http://www.w3.org/2000/svg" xmlns:xlink="http://www.w3.org/1999/xlink" version="1.1"><rect x="0" y="0" width="900" height="600" fill="#001220"></rect><path d="M572 600L626 514L559 429L530 343L626 257L581 171L662 86L661 0L900 0L900 86L900 171L900 257L900 343L900 429L900 514L900 600Z" fill="#001122"></path><path d="M622 600L710 514L639 429L720 343L666 257L690 171L665 86L597 0L900 0L900 86L900 171L900 257L900 343L900 429L900 514L900 600Z" fill="#362753"></path><path d="M769 600L709 514L685 429L700 343L678 257L765 171L693 86L733 0L900 0L900 86L900 171L900 257L900 343L900 429L900 514L900 600Z" fill="#892b67"></path><path d="M765 600L756 514L760 429L787 343L797 257L800 171L804 86L752 0L900 0L900 86L900 171L900 257L900 343L900 429L900 514L900 600Z" fill="#d33751"></path><path d="M822 600L832 514L843 429L833 343L843 257L816 171L813 86L836 0L900 0L900 86L900 171L900 257L900 343L900 429L900 514L900 600Z" fill="#f5730a"></path></svg>