<svg id="visual" viewBox="0 0 900 600" width="900" height="600" xmlns="http://www.w3.org/2000/svg" xmlns:xlink="http://www.w3.org/1999/xlink" version="1.1"><rect x="0" y="0" width="900" height="600" fill="#000000"></rect><defs><linearGradient id="grad1_0" x1="33.3%" y1="0%" x2="100%" y2="100%"><stop offset="20%" stop-color="#f7770f" stop-opacity="1"></stop><stop offset="80%" stop-color="#f7770f" stop-opacity="1"></stop></linearGradient></defs><defs><linearGradient id="grad1_1" x1="33.3%" y1="0%" x2="100%" y2="100%"><stop offset="20%" stop-color="#f7770f" stop-opacity="1"></stop><stop offset="80%" stop-color="#d95f00" stop-opacity="1"></stop></linearGradient></defs><defs><linearGradient id="grad1_2" x1="33.3%" y1="0%" x2="100%" y2="100%"><stop offset="20%" stop-color="#bc4700" stop-opacity="1"></stop><stop offset="80%" stop-color="#d95f00" stop-opacity="1"></stop></linearGradient></defs><defs><linearGradient id="grad1_3" x1="33.3%" y1="0%" x2="100%" y2="100%"><stop offset="20%" stop-color="#bc4700" stop-opacity="1"></stop><stop offset="80%" stop-color="#a02f00" stop-opacity="1"></stop></linearGradient></defs><defs><linearGradient id="grad1_4" x1="33.3%" y1="0%" x2="100%" y2="100%"><stop offset="20%" stop-color="#851300" stop-opacity="1"></stop><stop offset="80%" stop-color="#a02f00" stop-opacity="1"></stop></linearGradient></defs><defs><linearGradient id="grad1_5" x1="33.3%" y1="0%" x2="100%" y2="100%"><stop offset="20%" stop-color="#851300" stop-opacity="1"></stop><stop offset="80%" stop-color="#6b0000" stop-opacity="1"></stop></linearGradient></defs><defs><linearGradient id="grad1_6" x1="33.3%" y1="0%" x2="100%" y2="100%"><stop offset="20%" stop-color="#550000" stop-opacity="1"></stop><stop offset="80%" stop-color="#6b0000" stop-opacity="1"></stop></linearGradient></defs><defs><linearGradient id="grad1_7" x1="33.3%" y1="0%" x2="100%" y2="100%"><stop offset="20%" stop-color="#550000" stop-opacity="1"></stop><stop offset="80%" stop-color="#000000" stop-opacity="1"></stop></linearGradient></defs><defs><linearGradient id="grad2_0" x1="0%" y1="0%" x2="66.7%" y2="100%"><stop offset="20%" stop-color="#f7770f" stop-opacity="1"></stop><stop offset="80%" stop-color="#f7770f" stop-opacity="1"></stop></linearGradient></defs><defs><linearGradient id="grad2_1" x1="0%" y1="0%" x2="66.7%" y2="100%"><stop offset="20%" stop-color="#d95f00" stop-opacity="1"></stop><stop offset="80%" stop-color="#f7770f" stop-opacity="1"></stop></linearGradient></defs><defs><linearGradient id="grad2_2" x1="0%" y1="0%" x2="66.7%" y2="100%"><stop offset="20%" stop-color="#d95f00" stop-opacity="1"></stop><stop offset="80%" stop-color="#bc4700" stop-opacity="1"></stop></linearGradient></defs><defs><linearGradient id="grad2_3" x1="0%" y1="0%" x2="66.7%" y2="100%"><stop offset="20%" stop-color="#a02f00" stop-opacity="1"></stop><stop offset="80%" stop-color="#bc4700" stop-opacity="1"></stop></linearGradient></defs><defs><linearGradient id="grad2_4" x1="0%" y1="0%" x2="66.7%" y2="100%"><stop offset="20%" stop-color="#a02f00" stop-opacity="1"></stop><stop offset="80%" stop-color="#851300" stop-opacity="1"></stop></linearGradient></defs><defs><linearGradient id="grad2_5" x1="0%" y1="0%" x2="66.7%" y2="100%"><stop offset="20%" stop-color="#6b0000" stop-opacity="1"></stop><stop offset="80%" stop-color="#851300" stop-opacity="1"></stop></linearGradient></defs><defs><linearGradient id="grad2_6" x1="0%" y1="0%" x2="66.7%" y2="100%"><stop offset="20%" stop-color="#6b0000" stop-opacity="1"></stop><stop offset="80%" stop-color="#550000" stop-opacity="1"></stop></linearGradient></defs><defs><linearGradient id="grad2_7" x1="0%" y1="0%" x2="66.7%" y2="100%"><stop offset="20%" stop-color="#000000" stop-opacity="1"></stop><stop offset="80%" stop-color="#550000" stop-opacity="1"></stop></linearGradient></defs><g transform="translate(900, 0)"><path d="M0 297.5C-33.6 298.8 -67.2 300.1 -91.9 282.9C-116.6 265.7 -132.4 229.9 -146.4 201.4C-160.3 173 -172.4 151.7 -180.4 131.1C-188.4 110.4 -192.3 90.4 -211.1 68.6C-230 46.9 -263.7 23.4 -297.5 0L0 0Z" fill="#4c0000"></path><path d="M0 260.3C-29.4 261.4 -58.8 262.6 -80.4 247.5C-102 232.5 -115.9 201.2 -128.1 176.3C-140.3 151.3 -150.9 132.8 -157.9 114.7C-164.9 96.6 -168.3 79.1 -184.7 60C-201.2 41 -230.7 20.5 -260.3 0L0 0Z" fill="#600000"></path><path d="M0 223.1C-25.2 224.1 -50.4 225.1 -68.9 212.2C-87.5 199.3 -99.3 172.5 -109.8 151.1C-120.2 129.7 -129.3 113.8 -135.3 98.3C-141.3 82.8 -144.2 67.8 -158.4 51.5C-172.5 35.1 -197.8 17.6 -223.1 0L0 0Z" fill="#780000"></path><path d="M0 185.9C-21 186.7 -42 187.6 -57.4 176.8C-72.9 166.1 -82.8 143.7 -91.5 125.9C-100.2 108.1 -107.8 94.8 -112.8 81.9C-117.8 69 -120.2 56.5 -132 42.9C-143.7 29.3 -164.8 14.6 -185.9 0L0 0Z" fill="#922200"></path><path d="M0 148.7C-16.8 149.4 -33.6 150.1 -46 141.4C-58.3 132.8 -66.2 115 -73.2 100.7C-80.2 86.5 -86.2 75.9 -90.2 65.5C-94.2 55.2 -96.2 45.2 -105.6 34.3C-115 23.4 -131.9 11.7 -148.7 0L0 0Z" fill="#ae3b00"></path><path d="M0 111.5C-12.6 112 -25.2 112.5 -34.5 106.1C-43.7 99.6 -49.7 86.2 -54.9 75.5C-60.1 64.9 -64.7 56.9 -67.7 49.2C-70.7 41.4 -72.1 33.9 -79.2 25.7C-86.2 17.6 -98.9 8.8 -111.5 0L0 0Z" fill="#cb5300"></path><path d="M0 74.4C-8.4 74.7 -16.8 75 -23 70.7C-29.2 66.4 -33.1 57.5 -36.6 50.4C-40.1 43.2 -43.1 37.9 -45.1 32.8C-47.1 27.6 -48.1 22.6 -52.8 17.2C-57.5 11.7 -65.9 5.9 -74.4 0L0 0Z" fill="#e86b00"></path><path d="M0 37.2C-4.2 37.3 -8.4 37.5 -11.5 35.4C-14.6 33.2 -16.6 28.7 -18.3 25.2C-20 21.6 -21.6 19 -22.6 16.4C-23.6 13.8 -24 11.3 -26.4 8.6C-28.7 5.9 -33 2.9 -37.2 0L0 0Z" fill="#f7770f"></path></g><g transform="translate(0, 600)"><path d="M0 -297.5C26.7 -281.4 53.4 -265.4 84.1 -258.7C114.7 -252 149.3 -254.7 174.8 -240.6C200.4 -226.6 216.8 -195.7 230.6 -167.5C244.4 -139.4 255.6 -114 266.3 -86.5C277 -59.1 287.2 -29.5 297.5 0L0 0Z" fill="#4c0000"></path><path d="M0 -260.3C23.4 -246.2 46.7 -232.2 73.5 -226.4C100.4 -220.5 130.7 -222.9 153 -210.6C175.3 -198.2 189.7 -171.2 201.7 -146.6C213.8 -122 223.6 -99.7 233 -75.7C242.4 -51.7 251.3 -25.8 260.3 0L0 0Z" fill="#600000"></path><path d="M0 -223.1C20 -211.1 40 -199 63 -194C86 -189 112 -191.1 131.1 -180.5C150.3 -169.9 162.6 -146.7 172.9 -125.6C183.3 -104.5 191.7 -85.5 199.7 -64.9C207.8 -44.3 215.4 -22.1 223.1 0L0 0Z" fill="#780000"></path><path d="M0 -185.9C16.7 -175.9 33.4 -165.8 52.5 -161.7C71.7 -157.5 93.3 -159.2 109.3 -150.4C125.2 -141.6 135.5 -122.3 144.1 -104.7C152.7 -87.1 159.7 -71.2 166.4 -54.1C173.1 -36.9 179.5 -18.5 185.9 0L0 0Z" fill="#922200"></path><path d="M0 -148.7C13.3 -140.7 26.7 -132.7 42 -129.3C57.4 -126 74.7 -127.4 87.4 -120.3C100.2 -113.3 108.4 -97.8 115.3 -83.8C122.2 -69.7 127.8 -57 133.1 -43.3C138.5 -29.5 143.6 -14.8 148.7 0L0 0Z" fill="#ae3b00"></path><path d="M0 -111.5C10 -105.5 20 -99.5 31.5 -97C43 -94.5 56 -95.5 65.6 -90.2C75.1 -85 81.3 -73.4 86.5 -62.8C91.6 -52.3 95.8 -42.7 99.9 -32.4C103.9 -22.1 107.7 -11.1 111.5 0L0 0Z" fill="#cb5300"></path><path d="M0 -74.4C6.7 -70.4 13.3 -66.3 21 -64.7C28.7 -63 37.3 -63.7 43.7 -60.2C50.1 -56.6 54.2 -48.9 57.6 -41.9C61.1 -34.8 63.9 -28.5 66.6 -21.6C69.3 -14.8 71.8 -7.4 74.4 0L0 0Z" fill="#e86b00"></path><path d="M0 -37.2C3.3 -35.2 6.7 -33.2 10.5 -32.3C14.3 -31.5 18.7 -31.8 21.9 -30.1C25 -28.3 27.1 -24.5 28.8 -20.9C30.5 -17.4 31.9 -14.2 33.3 -10.8C34.6 -7.4 35.9 -3.7 37.2 0L0 0Z" fill="#f7770f"></path></g></svg>